<?xml version="1.0" encoding="UTF-8" standalone="no"?>
<!-- Created with Inkscape (http://www.inkscape.org/) -->

<svg
   xmlns:dc="http://purl.org/dc/elements/1.1/"
   xmlns:cc="http://creativecommons.org/ns#"
   xmlns:rdf="http://www.w3.org/1999/02/22-rdf-syntax-ns#"
   xmlns:svg="http://www.w3.org/2000/svg"
   xmlns="http://www.w3.org/2000/svg"
   xmlns:sodipodi="http://sodipodi.sourceforge.net/DTD/sodipodi-0.dtd"
   xmlns:inkscape="http://www.inkscape.org/namespaces/inkscape"
   width="210mm"
   height="210mm"
   viewBox="0 0 210 210"
   version="1.1"
   id="svg8"
   inkscape:version="0.92.4 (5da689c313, 2019-01-14)"
   sodipodi:docname="CyberECOM.svg"
   inkscape:export-filename="C:\Users\takuy\Desktop\Codes\Lang\Julia\CyberECOM.png"
   inkscape:export-xdpi="494.93713"
   inkscape:export-ydpi="494.93713">
  <defs
     id="defs2" />
  <sodipodi:namedview
     id="base"
     pagecolor="#ffffff"
     bordercolor="#666666"
     borderopacity="1.0"
     inkscape:pageopacity="0.0"
     inkscape:pageshadow="2"
     inkscape:zoom="0.7"
     inkscape:cx="240.98612"
     inkscape:cy="468.96511"
     inkscape:document-units="mm"
     inkscape:current-layer="layer4"
     showgrid="false"
     inkscape:window-width="1842"
     inkscape:window-height="1051"
     inkscape:window-x="1669"
     inkscape:window-y="-9"
     inkscape:window-maximized="1" />
  <metadata
     id="metadata5">
    <rdf:RDF>
      <cc:Work
         rdf:about="">
        <dc:format>image/svg+xml</dc:format>
        <dc:type
           rdf:resource="http://purl.org/dc/dcmitype/StillImage" />
        <dc:title></dc:title>
      </cc:Work>
    </rdf:RDF>
  </metadata>
  <g
     inkscape:label="カドケウス"
     inkscape:groupmode="layer"
     id="layer1"
     transform="translate(0,-87)"
     sodipodi:insensitive="true">
    <g
       style="opacity:1"
       id="g4638"
       transform="matrix(0.29794719,0,0,0.33136857,28.113699,90.464167)">
      <g
         id="g4626">
	<path
   id="path4624"
   style="fill:#5d60c2"
   d="m 511.814,273.543 c 0.068,-0.202 0.135,-0.388 0.186,-0.59 h -0.448 L 428.664,82.365 c 0,0 0,0 0.017,0 10.713,0.794 19.604,1.536 26.129,2.17 l 1.672,-17.924 C 429.517,64.12 364.493,59.342 294.083,57.923 292.741,49.735 288.841,42.339 283.235,36.733 276.295,29.776 266.612,25.454 256,25.454 c -10.613,0 -20.321,4.322 -27.26,11.279 -5.598,5.605 -9.507,13.001 -10.824,21.19 C 147.498,59.342 82.44,64.12 55.492,66.611 l 1.672,17.924 C 63.707,83.901 72.58,83.159 83.31,82.365 L 0.43,272.953 H 0 c 0.042,0.202 0.126,0.388 0.177,0.59 l -0.161,0.363 0.338,0.152 c 12.546,39.848 49.794,68.73 93.787,68.73 43.976,0 81.208,-28.882 93.77,-68.73 l 0.329,-0.152 -0.152,-0.346 0.009,-0.017 c 0.042,-0.202 0.118,-0.388 0.168,-0.59 h -0.439 L 104.298,80.87 c 0,0 0,0 0.008,0 31.482,-2.043 72.352,-4.162 115.054,-4.973 1.874,5.851 5.141,11.111 9.38,15.357 4.904,4.93 11.22,8.526 18.261,10.215 v 299.817 c -7.058,0 -13.601,0 -18.844,0 -7.404,0 -12.2,0 -12.208,0 h -7.666 l -1.216,7.556 c 0,0.094 -1.621,9.448 -6.256,18.81 -2.296,4.686 -5.302,9.338 -8.966,12.942 -3.69,3.605 -7.86,6.188 -13.095,7.354 l -7.04,1.57 v 37.028 h 168.552 v -8.982 -28.046 l -7.032,-1.57 c -5.302,-1.182 -9.532,-3.833 -13.272,-7.531 -2.76,-2.769 -5.175,-6.138 -7.159,-9.658 -2.997,-5.277 -5.024,-10.908 -6.256,-15.129 -0.625,-2.11 -1.039,-3.884 -1.292,-5.082 -0.135,-0.592 -0.219,-1.056 -0.27,-1.334 l -0.051,-0.304 -0.016,-0.05 -1.208,-7.573 h -7.674 c 0,0 -13.997,0 -31.043,0 V 101.469 c 7.042,-1.688 13.339,-5.284 18.244,-10.215 4.247,-4.246 7.522,-9.506 9.405,-15.357 42.668,0.811 83.571,2.93 115.045,4.973 0.009,0 0.009,0 0.009,0 l -83.53,192.083 h -0.447 c 0.067,0.202 0.135,0.388 0.186,0.59 l -0.161,0.363 0.346,0.152 c 12.528,39.848 49.793,68.73 93.77,68.73 43.985,0 81.224,-28.882 93.779,-68.73 l 0.33,-0.152 -0.152,-0.346 v -0.017 z M 94.141,327.372 c -28.83,0 -55.382,-15.315 -70.334,-39.004 h 140.626 c -14.935,23.689 -41.469,39.004 -70.292,39.004 z M 171.01,272.953 H 17.248 L 94.116,96.159 Z M 288.883,419.26 c 1.165,4.23 3.014,9.819 5.859,15.754 2.921,6.044 6.898,12.494 12.503,18.117 4.061,4.086 9.101,7.699 15.036,10.156 v 5.276 h -132.58 v -5.276 c 5.943,-2.457 10.976,-6.071 15.036,-10.156 4.204,-4.204 7.497,-8.898 10.105,-13.533 3.909,-6.949 6.349,-13.77 7.86,-18.937 0.135,-0.48 0.262,-0.928 0.388,-1.401 1.504,0 3.2,0.017 5.066,0.017 7.421,-0.017 17.425,-0.017 27.834,-0.017 13.045,0 25.438,0 32.893,0 z M 272.936,75.636 c -0.735,1.047 -1.528,2.009 -2.423,2.904 -3.723,3.724 -8.814,6.011 -14.512,6.011 -5.708,0 -10.798,-2.287 -14.546,-6.011 -0.87,-0.895 -1.697,-1.857 -2.407,-2.904 -2.262,-3.31 -3.605,-7.295 -3.605,-11.651 0,-2.229 0.338,-4.339 1.006,-6.332 0.996,-3.107 2.743,-5.91 5.006,-8.206 3.748,-3.715 8.838,-6.011 14.546,-6.011 5.699,0 10.789,2.296 14.512,6.011 2.288,2.296 4.036,5.099 5.04,8.206 0.667,1.993 0.996,4.103 0.996,6.332 -10e-4,4.356 -1.335,8.342 -3.613,11.651 z m 144.922,251.736 c -28.823,0 -55.366,-15.315 -70.317,-39.004 H 488.15 c -14.918,23.689 -41.461,39.004 -70.292,39.004 z M 340.964,272.953 417.858,96.16 494.744,272.953 Z"
   class="st0"
   inkscape:connector-curvature="0" />

</g>
    </g>
  </g>
  <g
     inkscape:groupmode="layer"
     id="layer2"
     inkscape:label="天秤"
     sodipodi:insensitive="true">
    <g
       style="opacity:1"
       id="g4607"
       transform="matrix(0.31751157,0,0,0.33999336,23.113631,9.4226916)">
      <g
         id="g4583">
	<path
   id="path4557"
   style="fill:#bed35b"
   d="M 235.223,157.762 233.351,86.655 C 210.493,85.704 194.457,62.534 190.653,39.684 186.477,14.619 159.235,-5.074 130.67,19.686 102.096,44.446 32.58,93.008 6.867,99.673 c -25.711,6.666 27.614,24.76 47.619,17.144 -22.546,20.308 10.789,36.494 40.781,20.784 -9.994,18.094 32.385,23.334 57.137,2.386 28.572,-18.095 66.471,2.853 82.819,17.775 z"
   class="st0"
   inkscape:connector-curvature="0" />

	<path
   id="path4559"
   style="fill:#bed35b"
   d="M 505.133,99.673 C 479.421,93.008 409.911,44.446 381.34,19.685 c -28.565,-24.76 -55.815,-5.068 -59.991,19.998 -3.805,22.85 -19.841,46.02 -42.684,46.971 l -1.88,71.107 c 16.349,-14.921 54.254,-35.869 82.819,-17.775 24.752,20.948 67.132,15.709 57.13,-2.386 29.992,15.71 63.327,-0.476 40.789,-20.784 19.996,7.617 73.321,-10.477 47.61,-17.143 z"
   class="st0"
   inkscape:connector-curvature="0" />

	<circle
   id="circle4561"
   style="fill:#bed35b"
   r="36.679001"
   cy="44.743"
   cx="256"
   class="st0" />

	<path
   id="path4563"
   style="fill:#bed35b"
   d="m 204.117,236.545 c 9.6,-2.497 19.588,-5.038 29.196,-7.49 -19.217,-4.741 -33.053,-7.453 -40.254,-18.541 -2.579,-3.975 -2.408,-8.374 -1.397,-11.295 2.08,-5.93 8.085,-8.509 25.4,-14.305 10.284,-3.433 15.575,-9.103 14.512,-15.576 -0.758,-4.614 -1.092,-7.498 -8.672,-8.635 -4.363,-0.638 -9.23,-2.37 -14.305,-4.867 -5.967,-2.92 -11.852,-1.992 -18.287,-1.992 -0.929,0 -1.902,0.082 -2.876,0.216 -13.331,2.074 -23.192,9.474 -28.565,17.515 -11.213,16.846 -15.286,43.806 10.24,64.419 4.274,3.47 9.356,6.302 14.982,8.761 5.714,-3.513 12.357,-6.263 20.026,-8.21 z"
   class="st0"
   inkscape:connector-curvature="0" />

	<path
   id="path4565"
   style="fill:#bed35b"
   d="m 263.194,453.828 c 8.969,11.043 12.097,21.58 9.05,28.818 -0.505,1.568 1.873,2.92 2.676,1.189 0.416,-0.253 1.1,-1.316 3.716,-7.327 5.974,-13.539 4.874,-25.005 0.298,-34.621 -6.392,3.983 -11.594,8.048 -15.74,11.941 z"
   class="st0"
   inkscape:connector-curvature="0" />

	<path
   id="path4567"
   style="fill:#bed35b"
   d="m 325.912,257.159 c -10.79,4.102 -22.724,7.067 -34.451,9.981 -3.552,0.891 -7.059,1.783 -10.582,2.667 -1.01,0.26 -2.066,0.55 -3.091,0.81 3.641,0.966 7.156,1.902 10.499,2.794 12.7,3.381 23.282,11.168 16.936,30.341 -3.136,9.482 -12.023,14.096 -30.14,19.848 -3.002,0.936 -6.257,1.947 -9.772,3.002 -3.01,0.847 -6.175,1.784 -9.571,2.794 0,0 0,0 -0.038,0 -2.838,0.81 -5.796,1.657 -8.888,2.541 -1.992,0.594 -4.064,1.182 -6.183,1.82 -8.545,2.534 -15.657,6.094 -21.416,10.411 -3.344,2.452 -6.257,5.209 -8.717,8.166 -7.824,9.356 -11.51,20.651 -11.763,32.377 -0.386,15.702 9.05,32.296 24.463,39.57 1.947,0.937 3.849,1.91 5.707,2.883 4.191,-5.506 9.735,-11.006 16.891,-16.467 -0.171,-0.082 -0.335,-0.208 -0.513,-0.29 l -2.579,-1.486 c -8.077,-4.786 -15.866,-11.771 -17.307,-19.09 -1.308,-6.555 -1.947,-15.999 15.323,-25.095 1.946,-1.018 4.146,-2.073 6.599,-3.047 1.65,-0.721 3.47,-1.441 5.38,-2.118 1.011,-0.379 1.984,-0.721 3.002,-1.056 3.092,-1.144 6.138,-2.244 9.096,-3.344 9.943,-3.723 19.09,-7.319 27.384,-11.005 3.894,-1.739 7.572,-3.471 11.05,-5.247 24.077,-12.105 38.3,-25.398 38.3,-43.977 0,-17.177 -5.209,-29.534 -15.619,-37.783 z"
   class="st0"
   inkscape:connector-curvature="0" />

	<path
   id="path4569"
   style="fill:#bed35b"
   d="m 263.104,453.955 c 0,-0.044 0.044,-0.089 0.089,-0.126 0,-0.044 -0.045,-0.089 -0.089,-0.126 z"
   class="st0"
   inkscape:connector-curvature="0" />

	<path
   id="path4571"
   style="fill:#bed35b"
   d="m 270.684,364.738 c 17.27,9.14 16.586,18.54 15.322,25.095 -1.441,7.32 -9.23,14.305 -17.314,19.09 l -2.623,1.486 c -0.17,0.082 -0.334,0.208 -0.513,0.29 -0.542,0.342 -1.137,0.676 -1.731,1.055 -2.534,1.486 -5.328,3.226 -8.122,5.209 -2.452,1.65 -4.912,3.515 -7.327,5.544 -3.596,3.002 -7.022,6.346 -10.024,10.121 -2.288,2.876 -4.28,5.96 -5.84,9.259 -4.615,9.571 -5.714,21.082 0.216,34.621 2.66,6.012 3.337,7.074 3.76,7.327 0.803,1.731 3.173,0.379 2.66,-1.189 -3.039,-7.238 0.052,-17.775 9.022,-28.78 0.253,0.216 0.505,0.424 0.758,0.684 l -0.045,-1.568 c 1.992,-2.37 4.28,-4.786 6.822,-7.156 2.326,-2.2 4.868,-4.355 7.662,-6.472 2.957,-2.281 6.175,-4.525 9.645,-6.725 2.965,-1.865 6.101,-3.686 9.445,-5.462 1.858,-0.973 3.76,-1.946 5.752,-2.883 15.367,-7.274 24.834,-23.868 24.462,-39.57 -0.297,-11.726 -3.938,-23.021 -11.77,-32.377 -9.232,4.279 -19.383,8.344 -30.217,12.401 z"
   class="st0"
   inkscape:connector-curvature="0" />

	<path
   id="path4573"
   style="fill:#bed35b"
   d="m 323.964,154.061 c -0.966,-0.134 -1.946,-0.216 -2.912,-0.216 -6.436,0 -12.32,-0.929 -18.25,1.992 -5.076,2.497 -9.943,4.228 -14.298,4.867 -7.58,1.138 -7.958,4.021 -8.68,8.635 -1.055,6.472 4.236,12.142 14.52,15.576 17.308,5.796 23.319,8.375 25.385,14.305 1.025,2.92 1.189,7.32 -1.397,11.295 -7.23,11.088 -21.074,13.8 -40.284,18.541 -0.676,0.17 -1.397,0.334 -2.073,0.505 -2.749,0.676 -5.759,1.441 -9.022,2.289 -3.507,0.884 -7.267,1.812 -11.25,2.83 l -10.537,2.668 c -12.276,3.128 -25.608,6.562 -38.307,9.817 -3.039,0.802 -5.922,1.694 -8.628,2.794 0,0 0,0 -0.045,0 -4.83,1.91 -9.103,4.317 -12.7,7.2 -10.411,8.249 -15.613,20.606 -15.613,37.787 0,18.578 14.216,31.872 38.3,44.014 7.491,-6.68 16.973,-11.927 28.142,-15.36 -18.11,-5.752 -26.997,-10.366 -30.178,-19.848 -6.345,-19.173 4.236,-26.96 16.929,-30.341 3.344,-0.892 6.903,-1.829 10.544,-2.794 3.894,-0.981 7.914,-2.036 12.061,-3.092 3.299,-0.847 6.643,-1.694 10.031,-2.586 3.552,-0.884 7.104,-1.821 10.708,-2.749 3.887,-0.966 7.78,-1.985 11.674,-3.003 11.726,-3.047 23.913,-5.759 35.045,-9.229 h 0.045 c 4.948,-1.56 9.734,-3.255 14.134,-5.202 5.632,-2.459 10.708,-5.291 14.981,-8.761 25.526,-20.614 21.46,-47.574 10.24,-64.419 -5.365,-8.04 -15.271,-15.441 -28.565,-17.515 z"
   class="st0"
   inkscape:connector-curvature="0" />

	<path
   id="path4575"
   style="fill:#bed35b"
   d="m 249.268,474.227 v 0.045 l 0.089,4.273 0.119,8.672 0.297,16.72 h 12.448 l 0.259,-15.323 0.625,-34.658 c -3.002,2.794 -5.454,5.543 -7.402,8.13 -3.686,4.814 -5.715,9.049 -6.435,12.141 z"
   class="st0"
   inkscape:connector-curvature="0" />

	<path
   id="path4577"
   style="fill:#bed35b"
   d="m 255.659,403.84 c 1.568,-0.966 3.217,-1.984 4.912,-2.958 l 2.578,-1.486 c 0.297,-0.164 0.595,-0.334 0.892,-0.55 l 0.424,-24.968 0.126,-6.896 c -2.675,0.974 -5.417,1.992 -8.174,2.958 -0.252,0.089 -0.505,0.171 -0.714,0.26 -3.217,1.182 -5.93,2.281 -8.174,3.381 l 0.431,25.608 0.164,9.771 c 2.333,-1.731 4.83,-3.425 7.535,-5.12 z"
   class="st0"
   inkscape:connector-curvature="0" />

	<path
   id="path4579"
   style="fill:#bed35b"
   d="m 252.188,318.948 c 1.226,-0.342 2.37,-0.683 3.515,-1.017 3.552,-1.063 6.814,-2.029 9.817,-2.92 l 0.587,-36.018 0.134,-5.373 c -2.289,0.594 -4.533,1.144 -6.777,1.739 -1.264,0.335 -2.534,0.632 -3.76,0.966 -3.344,0.847 -6.599,1.694 -9.824,2.496 l 0.639,36.397 0.089,5.336 c 1.902,-0.551 3.759,-1.1 5.58,-1.606 z"
   class="st0"
   inkscape:connector-curvature="0" />

	<path
   id="path4581"
   style="fill:#bed35b"
   d="m 242.201,88.014 2.668,132.577 0.081,5.454 c 3.723,-0.929 7.32,-1.858 10.753,-2.75 4.102,-1.01 7.951,-1.991 11.467,-2.876 l 2.667,-132.406 c -4.443,1.19 -9.058,1.865 -13.836,1.865 -4.786,0.001 -9.394,-0.674 -13.8,-1.864 z"
   class="st0"
   inkscape:connector-curvature="0" />

</g>
    </g>
  </g>
  <g
     inkscape:groupmode="layer"
     id="layer3"
     inkscape:label="インテグラル"
     sodipodi:insensitive="true">
    <flowRoot
       xml:space="preserve"
       id="flowRoot4656"
       style="font-style:normal;font-weight:normal;font-size:40px;line-height:1.25;font-family:sans-serif;letter-spacing:0px;word-spacing:0px;fill:#14c3c3;fill-opacity:0.99606299;stroke:none"
       transform="matrix(0.26852192,0.69751321,-0.84617621,0.32575275,629.40314,-214.68873)"><flowRegion
         id="flowRegion4658"
         style="fill:#14c3c3;fill-opacity:0.99606299"><rect
           id="rect4660"
           width="689.9342"
           height="417.19302"
           x="98.994949"
           y="559.3454"
           style="fill:#14c3c3;fill-opacity:0.99606299" /></flowRegion><flowPara
         id="flowPara4662"
         style="font-style:normal;font-variant:normal;font-weight:normal;font-stretch:normal;font-size:192px;font-family:'Yu Mincho';-inkscape-font-specification:'Yu Mincho, Normal';font-variant-ligatures:normal;font-variant-caps:normal;font-variant-numeric:normal;font-feature-settings:normal;text-align:start;writing-mode:lr-tb;text-anchor:start;fill:#14c3c3;fill-opacity:0.99606299">∫</flowPara></flowRoot>  </g>
  <g
     inkscape:groupmode="layer"
     id="layer4"
     inkscape:label="文字">
    <flowRoot
       xml:space="preserve"
       id="flowRoot4670"
       style="font-style:normal;font-weight:normal;font-size:40px;line-height:1.25;font-family:sans-serif;letter-spacing:0px;word-spacing:0px;fill:#000000;fill-opacity:1;stroke:none"
       transform="scale(0.26458333)"><flowRegion
         id="flowRegion4672"><rect
           id="rect4674"
           width="608.44727"
           height="288.73151"
           x="106.74072"
           y="402.94388" /></flowRegion><flowPara
         id="flowPara4676"></flowPara></flowRoot>    <text
       xml:space="preserve"
       style="font-style:normal;font-weight:normal;font-size:10.58333302px;line-height:1.25;font-family:sans-serif;letter-spacing:0px;word-spacing:0px;fill:#000000;fill-opacity:1;stroke:none;stroke-width:0.26458332"
       x="30.457983"
       y="200.5309"
       id="text4680"><tspan
         sodipodi:role="line"
         id="tspan4678"
         x="30.457983"
         y="200.5309"
         style="font-style:normal;font-variant:normal;font-weight:normal;font-stretch:normal;font-size:25.39999962px;font-family:'Yu Mincho';-inkscape-font-specification:'Yu Mincho, Normal';font-variant-ligatures:normal;font-variant-caps:normal;font-variant-numeric:normal;font-feature-settings:normal;text-align:start;writing-mode:lr-tb;text-anchor:start;stroke-width:0.26458332">CyberECOM</tspan></text>
  </g>
  <style
     id="style4555"
     type="text/css">
	.st0{fill:#4B4B4B;}
</style>
  <style
     id="style4622"
     type="text/css">
	.st0{fill:#4B4B4B;}
</style>
</svg>
